<?xml version="1.0" encoding="UTF-8" standalone="no"?>
<svg id="svg" width="900px" height="800px" viewBox="0 0 552 426" version="1.1" xmlns="http://www.w3.org/2000/svg" xmlns:xlink="http://www.w3.org/1999/xlink">
    <!-- Generator: Sketch 40.3 (33839) - http://www.bohemiancoding.com/sketch -->
    <title>esa</title>
    <style>

     .screen.idle#wink {
          animation-name: eye-wink;
          animation-duration: 0.5s;
          animation-iteration-count: 1;
          transform-origin: 50%;
        }
      .screen.idle#right {
        animation-name: wave;
        animation-duration: 3s;
        animation-iteration-count: 1;
        animation-timing-function: ease-in;
  }

      @-webkit-keyframes eye-wink {
        0% { -webkit-transform: scaleX(1) scaleY(1); }
        1% { -webkit-transform: scaleX(1) scaleY(1); }
        2% { -webkit-transform: scaleX(1) scaleY(1); }
        30% { -webkit-transform: scaleX(1) scaleY(0.02); }
        60% { -webkit-transform: scaleX(1) scaleY(0.001); }
        61% { -webkit-transform: scaleX(1.1) scaleY(0.02);}
        62% { -webkit-transform: scaleX(1) scaleY(0,5); }
        100% { -webkit-transform: scaleX(1) scaleY(1); }
      }

      <!-- #right {
        animation-name: wave;
        animation-duration: 1s;
        animation-iteration-count: 3;
        animation-timing-function: ease-in;
    }

      @-webkit-keyframes wave {
        0% {-webkit-transform: rotate(364deg);}
        50% {-webkit-transform: rotate(366deg); }
        100% {-webkit-transform: rotate(364deg);}
      } -->

      #Welcome {
        animation-name: bounce;
        animation-duration: 10s;
        animation-iteration-count: 110;
        animation-timing-function: ease-in-out;
        animation-direction: alternate;
        }

        @-webkit-keyframes bounce {
          0%{ -webkit-transform: rotate(0) translateY(0); }
          5%{ -webkit-transform: rotate(0.2deg) translateY(10px); }
          10%{ -webkit-transform: rotate(0) translateY(0); }
          15%{ -webkit-transform: rotate(0.3deg) translateY(10px); }
          20%{ -webkit-transform: rotate(0) translateY(0); }
          25%{ -webkit-transform: rotate(0.2deg) translateY(10px); }
          30%{ -webkit-transform: rotate(0) translateY(0); }
          35%{ -webkit-transform: rotate(0.2deg) translateY(10px); }
          40%{ -webkit-transform: rotate(0) translateY(0); }
          45%{ -webkit-transform: rotate(0.2deg) translateY(10px); }
          50%{ -webkit-transform: rotate(0) translateY(0); }
          55%{ -webkit-transform: rotate(0.2deg) translateY(10px); }
          60%{ -webkit-transform: rotate(0) translateY(0); }
          65%{ -webkit-transform: rotate(0.2deg) translateY(10px); }
          70%{ -webkit-transform: rotate(0) translateY(0); }
          75%{ -webkit-transform: rotate(0.2deg) translateY(10px); }
          80%{ -webkit-transform: rotate(0) translateY(0); }
          85%{ -webkit-transform: rotate(0.2deg) translateY(10px); }
          90%{ -webkit-transform: rotate(0) translateY(0); }
          100%{ -webkit-transform: rotate(0.2deg) translateY(10px); }
        }

      #right {
        animation-name: wave;
        animation-duration: 3s;
        animation-iteration-count: 1;
        animation-timing-function: ease-in;
    }

      @-webkit-keyframes wave {
        0% {-webkit-transform: rotate(364deg);}
        16% {-webkit-transform: rotate(366deg); }
        33% {-webkit-transform: rotate(364deg); }
        49% {-webkit-transform: rotate(365deg); }
        66% {-webkit-transform: rotate(364deg); }
        82% {-webkit-transform: rotate(366deg); }
        100% {-webkit-transform: rotate(364deg);}
      }

       <!-- #svg {
        margin: auto;
        animation-name: bounce;
        animation-duration: 0.5s;
        animation-iteration-count: infinite;
        animation-timing-function: ease-in-out;
        animation-direction: alternate;
        }

        @-webkit-keyframes bounce {
          0%{ -webkit-transform: rotate(0) translateY(0); }
          100%{ -webkit-transform: rotate(0.2deg) translateY(5px); }
        } -->

    </style>
    <desc>Created with Sketch.</desc>
    <defs>
        <path d="M-1.95943488e-15,74 C-3.04160088e-15,91.673112 14.3203044,106 31.9999655,106 L64.0000345,106 C81.6731274,106 96,91.6769978 96,74 C96,56.326888 81.6796956,42 64.0000345,42 L64,0 L0,0 L0,74 Z" id="path-1"></path>
        <mask id="mask-2" maskContentUnits="userSpaceOnUse" maskUnits="objectBoundingBox" x="0" y="0" width="96" height="106" fill="white">
            <use xlink:href="#path-1"></use>
        </mask>
        <path d="M14.5,32 L49.5,32" id="path-3"></path>
        <path d="M-1.95943488e-15,74 C-3.04160088e-15,91.673112 14.3203044,106 31.9999655,106 L64.0000345,106 C81.6731274,106 96,91.6769978 96,74 C96,56.326888 81.6796956,42 64.0000345,42 L64,0 L0,0 L0,74 Z" id="path-4"></path>
        <mask id="mask-5" maskContentUnits="userSpaceOnUse" maskUnits="objectBoundingBox" x="0" y="0" width="96" height="106" fill="white">
            <use xlink:href="#path-4"></use>
        </mask>
        <path d="M14.5,32 L49.5,32" id="path-6"></path>
    </defs>
    <g id="Welcome" stroke="none" stroke-width="1" fill="none" fill-rule="evenodd">
        <g id="Desktop-HD" transform="translate(-342.000000, -461.000000)">
            <g id="esa" transform="translate(295.000000, 400.000000)">
                <path d="M440.286403,217.487852 C440.286403,203.399282 451.027141,195.834875 464.348684,200.411746 C464.348684,200.411746 506.051381,216.360021 527.260317,216.360021 C547.087277,216.360021 591.080298,205.958404 591.080298,205.958404 C604.832436,202.94872 616.424561,211.916017 616.972255,225.993149 L617.072946,228.581167 C617.620541,242.655735 608.212229,259.845042 595.928142,266.723646 C595.928142,266.723646 584.715946,274.212214 568.951277,279.563399 C559.859021,282.649689 546.311901,282.990564 538.525586,282.990564 C516.670503,282.990564 465.237972,271.423143 465.237972,271.423143 C451.457601,268.526693 440.286403,254.767721 440.286403,240.669043 L440.286403,217.487852 Z" id="right" fill="#0177CC" transform="translate(528.691044, 241.033999) rotate(320.000000) translate(-528.691044, -241.033999) "></path>
                <path d="M194.947725,297.48072 C204.208736,286.864728 200.900574,274.603935 187.626989,269.899804 C187.626989,269.899804 146.434973,256.98761 131.060933,244.087259 C116.688666,232.027495 92.2839256,198.342282 92.2839256,198.342282 C83.8084569,187.09668 69.2836582,186.448735 59.8380366,196.899308 L58.1015009,198.8206 C48.6575999,209.269269 44.5709812,228.579558 49.2654254,241.863675 C49.2654254,241.863675 52.2255346,253.457179 60.2134319,267.145297 C64.8204428,275.039904 74.4214378,283.541075 80.0656205,288.277107 C95.9080432,301.570478 139.46538,323.3781 139.46538,323.3781 C151.95742,329.88092 169.5953,326.542468 178.852763,315.930542 L194.947725,297.48072 Z" id="left" fill="#0177CC"></path>
                <rect id="Rectangle" fill="#0177CC" x="138.256134" y="61.5" width="356.743866" height="327.5" rx="78"></rect>
                <circle id="Oval" fill="#FF6319" cx="312" cy="274" r="32"></circle>
                <ellipse id="wink" class="wink" stroke="#FFFFFF" stroke-width="10" cx="212.5" cy="254.5" rx="33.5" ry="32.5"></ellipse>
                <ellipse id="Oval" stroke="#FFFFFF" stroke-width="10" cx="411.5" cy="254.5" rx="33.5" ry="32.5"></ellipse>
                <g id="Group" transform="translate(315.000000, 380.000000)">
                    <use id="Combined-Shape" stroke="#0177CC" mask="url(#mask-2)" stroke-width="20" fill="#FFFFFF" xlink:href="#path-1"></use>
                    <path d="M14.5,19 L49.5,19" id="Line" stroke="#F290CE" stroke-width="10" stroke-linecap="square"></path>
                    <g id="Line" stroke-linecap="square">
                        <use stroke="#00995D" stroke-width="10" xlink:href="#path-3"></use>
                        <use stroke="#979797" stroke-width="1" xlink:href="#path-3"></use>
                    </g>
                </g>
                <g id="Group" transform="translate(267.000000, 434.000000) scale(-1, 1) translate(-267.000000, -434.000000) translate(219.000000, 381.000000)">
                    <use id="Combined-Shape" stroke="#0177CC" mask="url(#mask-5)" stroke-width="20" fill="#FFFFFF" xlink:href="#path-4"></use>
                    <path d="M14.5,19 L49.5,19" id="Line" stroke="#F290CE" stroke-width="10" stroke-linecap="square"></path>
                    <g id="Line" stroke-linecap="square">
                        <use stroke="#00995D" stroke-width="10" xlink:href="#path-6"></use>
                        <use stroke="#979797" stroke-width="1" xlink:href="#path-6"></use>
                    </g>
                </g>
                <path d="M256,331 C256,331 282.751168,353.195312 309.502336,353.195312 C336.253505,353.195312 363.004673,331 363.004673,331" id="Line" stroke="#FFFFFF" stroke-width="15" stroke-linecap="round" stroke-linejoin="bevel"></path>
                <rect id="Rectangle-4" x="1.13686838e-13" y="0" width="647" height="543"></rect>
            </g>
        </g>
    </g>
</svg>
